<?xml version="1.0" encoding="utf-8"?>
<!-- Generator: Adobe Illustrator 27.6.0, SVG Export Plug-In . SVG Version: 6.00 Build 0)  -->
<svg version="1.1" xmlns="http://www.w3.org/2000/svg" xmlns:xlink="http://www.w3.org/1999/xlink" x="0px" y="0px"
	 viewBox="0 0 100 100" style="enable-background:new 0 0 100 100;" xml:space="preserve">
<style type="text/css">
	svg{background-color: white;}
.st0{fill:none;stroke:#36489E;stroke-width:3.976;stroke-miterlimit:10;}
	.st1{fill:#36489E;}
</style>
<g id="Layer_1">
	<g>
		<path d="M47.38,46.79c0.47-0.95,0.11-2.69,0.11-3.74c0-1.65,0-3.3,0-4.95c0-2.97,0-5.94,0-8.91c0-1.54,0-3.08,0-4.62
			c0-0.54,0.14-1.28,0-1.8c-0.18-0.66-0.21-0.43-0.77-0.67c-2.03-0.88-4.1-2.54-5.1-4.63c-1.95-4.09,2.76-8.84,6.87-8.47
			c1.06,0.09,1.96,0.63,3,0.78c1.24,0.18,2.22,0.42,3.17,1.28c1.7,1.54,2.21,4.02,1.12,6.06c-0.69,1.29-1.88,2.17-2.93,3.14
			c-0.46,0.43-0.92,0.9-1.44,1.25c-0.42,0.28-1.13,0.37-1.41,0.8c-0.54,0.82-0.07,3.38-0.07,4.36c0,1.52,0,3.05,0,4.57
			c1.23-1.08,2.44-2.19,3.65-3.3c0.48-0.44,1.28-0.91,1.57-1.5c0.32-0.66,0.02-1.5,0.09-2.22c0.3-2.96,3.7-5.05,5.71-6.9
			c2.14-1.97,5.11-3.41,7.74-1.22c2.35,1.95,1.8,5.3-0.14,7.27c-1,1.02-2.06,2.01-3.12,2.97c-1.22,1.1-2.3,2.43-3.91,2.93
			c-1.66,0.51-2.89,0.18-4.39-0.55c-0.82-0.4-0.75-0.38-1.51,0.28c-0.72,0.63-1.43,1.28-2.14,1.93c-0.96,0.88-2.62,1.99-3.25,3.15
			c-0.3,0.54-0.65,2.18,0.06,2.62c0.73,0.45,2.88-0.32,3.68-0.39c0.99-0.08,4.26-0.7,4.91,0.39c1.16,1.94-2.76,1.6-3.47,1.62
			c-1.08,0.03-4.78-0.09-5.43,0.95c-0.36,0.58-0.06,2.24-0.06,2.92c0,1.18,0,2.36,0,3.54c0,1.98-0.38,4.41,0.05,6.34
			c1.15-0.57,2.23-1.9,3.15-2.77c1.17-1.1,1.98-1.85,3.45-2.34c0.8-0.27,0.68-0.43,1.21-1.18c0.31-0.44,0.7-0.83,1.16-1.11
			c1.22-0.75,2.58-0.56,3.93-0.73c1.63-0.19,2.24-0.12,3.61,0.72c1.24,0.75,2.63-0.87,4.17-0.62c1.01,0.17,3.01,1.25,2.13,2.48
			c-0.46,0.64-1.01,0.58-1.61,0.32c-0.8-0.35-0.83-0.72-1.82-0.47c-1.25,0.32-2.25,1.36-3.57,0.65c-0.49-0.26-0.81-1.01-1.31-1.18
			c-0.64-0.22-2.02,0.35-2.76,0.38c-0.99,0.04-2.84,0.37-2.28,1.83c0.6,1.56,2.42,1.03,3.64,1.31c0.97,0.22,1.07,0.5,1.98,0
			c0.62-0.34,1.04-0.9,1.79-1.01c1.58-0.24,2.57,1.34,4.07,0.54c1.35-0.73,2.7,0.26,1.52,1.6c-0.76,0.87-2.1,1.09-3.19,0.85
			c-1.32-0.29-1.72-0.83-2.99-0.08c-1.69,1-2.45,0.36-4.22,0.13c-1.43-0.19-2.44,0.05-3.57-1.03c-0.37-0.36-0.77-1.21-1.34-1.3
			c-0.7-0.11-1.52,0.92-1.98,1.32c-1.35,1.19-2.67,2.43-3.99,3.65c-0.52,0.48-1.08,0.85-1.25,1.56c-0.23,0.97,0.01,2.29,0.01,3.29
			c0,0.83-0.48,3.91,0.22,4.47c0.37,0.3,4.47,0.3,4.86,0c0.41-0.32,0.28-1.27,0.41-1.75c0.18-0.67,0.51-1.26,0.96-1.78
			c0.46-0.54,0.95-0.75,1.52-1.13c0.53-0.35,0.88-0.97,1.44-1.24c1.52-0.74,2.07,0.64,1.24,1.74c-0.83,1.1-2.41,1.49-2.88,2.79
			c-1.03,2.84,2.83,3.7,4.82,2.68c0.73-0.38,1.99-1.8,2.53-0.28c0.5,1.42-1.62,2.28-2.61,2.59c-3.14,0.97-5.21-1.4-8.16-1.39
			c-0.84,0-3.61-0.47-4.21,0.14c-0.36,0.36-0.13,1.67-0.13,2.1c0,0.96,0,1.91,0,2.87c0,1.91,0,3.82,0,5.73
			c0,0.34-0.24,1.53,0.13,1.68c0.32,0.13,1.67-1.45,1.82-1.59c1.33-1.25,2.03-2.14,3.9-2.16c0.84-0.01,1.67-0.01,2.51-0.01
			c0.77,0,2.14,0.29,2.85-0.01c0.89-0.39,1.13-1.91,1.93-2.57c1.22-1.01,2.63-0.91,4.13-0.9c1.79,0,3.58-0.01,5.37,0
			c1.46,0,3.29-0.29,4.64,0.4c2.02,1.03,2.79,3.77,1.71,5.73c-1.63,2.95-5.22,2.16-8.01,2.15c-1.74-0.01-3.53,0.18-5.26,0.08
			c-0.68-0.04-1.35-0.16-1.96-0.47c-0.9-0.46-1.11-1.27-1.82-1.86c-0.96-0.79-3.21-0.34-4.41-0.34c-0.71,0-1.68-0.17-2.35,0.08
			c-0.82,0.32-1.49,1.2-2.11,1.79c-0.92,0.86-2.75,2.02-3.06,3.26c-0.41,1.69-0.01,4.01-0.01,5.75c0,1.86,0,3.72-0.01,5.58
			c0,0.53-0.24,1.46,0.23,1.84c0.41,0.33,1.97,0.06,2.5,0.06c3.68,0,7.37,0,11.05,0c1.84,0,3.68,0,5.53,0c1,0,3.76-0.41,3.39,1.37
			c-0.3,1.5-2.77,1.01-3.85,1.01c-1.99,0-3.98,0-5.97,0c-3.76,0-7.52,0-11.28,0c-7.74,0-15.49,0-23.23,0.01
			c-1.02,0-3.04,0.41-3.43-0.9c-0.56-1.84,2.16-1.5,3.15-1.5c3.86,0,7.72,0,11.58,0c1.88,0,3.75,0,5.63,0c1.25,0,2.16,0.4,2.29-0.93
			c0.35-3.57,0.03-7.4,0.02-11c-0.01-1.7-0.73-2.32-1.91-3.47c-1.02-0.99-2.17-2.71-3.62-2.97c-1.21-0.22-3.26,0.55-4.31-0.24
			c-0.41-0.31-0.63-1.01-0.34-1.46c0.46-0.69,1.89-0.48,2.6-0.49c1.51-0.03,3.2-0.34,4.34,0.7c0.38,0.35,2.82,3.14,3.1,3.01
			c0.42-0.19,0.12-2.83,0.12-3.27c0-1.52,0-3.04,0-4.56c0-2.82,0-5.65,0-8.47c0-1.3,0-2.61,0-3.91c0-0.65,0.37-2.81-0.11-3.28
			c-0.46-0.45-2.61-0.04-3.19-0.04c-1.16,0.01-2.59-0.25-3.67,0.16c-0.99,0.37-1.64,0.79-2.77,0.82c-1.53,0.05-3.07,0-4.6,0
			c-1.32,0-2.63,0-3.95,0c-1.05,0-2.32,0.19-3.23-0.46c-0.27-0.19-0.9-0.77-0.85-1.14c0.06-0.49,0.21-0.33,0.72-0.41
			c1.3-0.2,2.8,0.01,4.12,0.02c1.27,0,2.53,0.01,3.8,0.01c1.28,0,3.22,0.37,4.43,0.01c0.84-0.25,0.76-0.67-0.03-0.89
			c-1.32-0.36-3.26,0-4.62,0c-1.32,0-2.64,0-3.96,0c-1.09,0-2.73,0.33-3.77,0.01c-0.47-0.15-0.75,0.14-0.69-0.61
			c0.03-0.4,0.55-0.79,0.85-0.99c0.98-0.62,2.21-0.46,3.31-0.46c2.86,0,5.74-0.1,8.6,0.01c0.98,0.04,1.76,0.17,2.49,0.87
			c0.32,0.31,0.46,0.67,0.87,0.84c0.58,0.25,1.73,0.03,2.33,0.03c0.8,0,2.88,0.39,3.55-0.02c0.65-0.4,0.51-1.68,0.13-2.33
			c-0.52-0.92-1.58-1.66-2.3-2.41c-0.88-0.93-1.81-1.81-2.71-2.73c-1.28-1.32-2.56-3.31-4.48-3.37c-1.38-0.05-2.77,0.02-4.16,0.01
			c-1.16,0-3.25,0.41-4.3-0.06c-0.7-0.32-0.95-1.34-0.35-1.92c0.71-0.69,2.88-0.31,3.78-0.31c2.51,0,6.23-0.85,8.13,1.05
			C43.05,42.38,45.14,44.67,47.38,46.79z M54.17,15.01c-0.13-3.04-2.78-2.71-4.9-3.62c-2.2-0.94-5.86,1.47-5.93,3.91
			c-0.04,1.42,1.08,2.14,1.93,3.08c0.89,0.98,1.7,1.86,3.16,1.86c1.41-0.01,2.37-1.05,3.33-1.93
			C52.65,17.48,54.36,16.43,54.17,15.01z M65.59,17.23c-1.41-0.19-2.4,0.98-3.33,1.86c-1.09,1.03-2.19,2.04-3.28,3.06
			c-0.81,0.76-1.52,1.46-1.58,2.63c-0.07,1.31,0.83,2.43,2.15,2.6c2.51,0.33,5.04-3.36,6.73-4.86c0.99-0.88,2.19-1.94,1.82-3.42
			C67.83,17.97,66.77,17.02,65.59,17.23z M70.46,76.9c1.87,0,7.73,1.05,6.68-2.55c-0.35-1.19-1.41-1.27-2.51-1.28
			c-1.66-0.02-3.32,0.07-4.98,0.06c-1.87-0.02-6.24-0.94-5.87,2.16c0.14,1.17,0.77,1.5,1.86,1.61C67.22,77.05,68.88,76.9,70.46,76.9
			z"/>
		<path d="M32.73,64.67c1.17-0.25,2.17-0.29,3.33-0.02c1.45,0.34,1.54-0.64,2.69-1.38c0.69-0.44,1.93-0.55,1.8,0.64
			c-0.12,1.15-1.99,1.51-2.2,2.58c-0.28,1.4,0.98,1.16,1.79,1.2c0.9,0.04,2.32,0.74,0.85,1.32c-0.58,0.23-1.31-0.17-1.83,0
			c-0.61,0.21-0.42,0.31-0.65,0.96c-0.38,1.07-1.24,1.77-2.02,2.56c-2.05,2.04-4.1,4.23-6.36,6.04c-0.89,0.71-1.84,0.95-2.99,0.87
			c-1.18-0.08-1.63-0.67-2.67,0.15c-0.6,0.48-1.63,1.85-2.48,0.79c-0.8-1.01,0.96-1.8,1.44-2.44c0.36-0.48,0.63-1.45-0.04-1.87
			c-0.47-0.3-2.68,0.61-2.33-0.77c0.17-0.67,0.98-0.48,1.48-0.5c0.8-0.03,0.71,0.06,1.05-0.66c0.6-1.29,1-2.11,2.07-3.12
			c2.19-2.08,4.36-4.77,6.98-6.3C32.67,64.71,32.7,64.69,32.73,64.67z M31.69,74.09c-0.24-0.5-2.87-3.55-3.18-2.62
			c-0.17,0.51,1.32,1.72,1.63,2.05C30.35,73.75,31.64,75.16,31.69,74.09z M31.82,68.34c-1.15,0.2,1.64,3.05,2.13,3.08
			C35.33,71.5,32.48,68.42,31.82,68.34z M28.56,76.62c-0.21-0.43-2.75-3.27-2.83-1.98C25.69,75.26,28.5,77.69,28.56,76.62z
			 M33.64,66.9c-1.03,0.44,1.74,3.11,2.19,2.62C36.36,68.93,34.14,67.07,33.64,66.9z"/>
		<path d="M71.08,30.95c0.95-1.76,2.8-2.67,4.77-2.26c1.19,0.25,1.41,0.41,2.44-0.23c0.88-0.54,2.06-0.63,3.08-0.35
			c3.8,1.05,2.91,6.73-0.78,7.23c-0.93,0.12-1.5-0.33-2.32-0.46c-0.88-0.14-1.76,0.73-2.8,0.78c-1.15,0.06-1.93-0.33-2.97-0.59
			c-0.68-0.17-0.53-0.12-1.15,0.29c-0.62,0.41-1.36,0.51-1.98,0.87c-0.77,0.45-0.99,1.43-1.76,1.98c-0.78,0.56-1.8,0.86-2.76,0.73
			c-1.84-0.26-3.31-2.08-3.18-3.92c0.19-2.68,2.4-3.53,4.71-3.36c1.24,0.09,1.62-1.12,2.67-1.77
			C70.19,29.18,71.53,29.37,71.08,30.95c-0.63,0.46-3.68,2.26-2.1,3.23c0.45,0.27,1.64-0.54,1.9-0.93
			C71.27,32.68,71.06,31.6,71.08,30.95z M76.75,32.29c-0.01-2.1-3.6-2.23-3.62-0.18C73.1,34.01,76.76,34.38,76.75,32.29z
			 M80.16,33.29c2.16-0.02,2.11-3.26,0-3.25C78.1,30.05,78.08,33.31,80.16,33.29z M63.86,35.23c0,1.87,2.74,2.13,3.16,0.38
			C67.54,33.42,63.86,32.81,63.86,35.23z"/>
		<path d="M16.83,55.23c0-0.46-0.15-2.49,0.98-1.85c0.57,0.32,0.37,1.88,0.35,2.35c-0.03,0.63-0.18,1.43,0.79,1.35
			c0.78-0.07,0.97-1.1,1.42-1.63c0.55-0.64,1.33-0.75,1.3,0.25c-0.02,0.75-1.22,1.37-1.19,2.03c0.02,0.45,0.77,0.88,1.11,0.89
			c0.61,0.03,2.15-1.7,2.44-0.38c0.25,1.14-3.4,1.55-1.62,2.37c0.71,0.33,2.2-0.47,2.82,0.12c0.67,0.64,0,1.09-0.64,1.24
			c-0.63,0.15-1.91-0.33-2.42,0.1c-0.73,0.62,0.19,1.03,0.69,1.24c0.44,0.19,1.58,0.52,1.12,1.29c-0.57,0.96-2.03-0.69-2.69-0.44
			c-1.99,0.75,1.08,2.54,0.28,3.49c-0.98,1.17-2.72-3.71-3.47-1.06c-0.17,0.61,0.47,2.44-0.27,2.86c-0.67,0.39-0.89-0.2-1.02-0.72
			c-0.16-0.68,0.35-2-0.06-2.58c-0.53-0.76-1.25-0.11-1.59,0.38c-0.25,0.35-0.81,1.41-1.34,1.42c-1.32,0.01-0.08-1.65,0.13-2.02
			c0.38-0.67,0.68-0.98-0.02-1.55c-0.71-0.58-0.91,0.03-1.73,0.29c-0.65,0.2-1.65,0.15-1.18-0.79c0.31-0.62,1.48-0.45,1.84-0.97
			c1.06-1.51-3.11-0.47-3.48-1.38c-0.75-1.84,4.18-0.02,3.55-1.59c-0.27-0.67-2.02-0.6-2.05-1.49c-0.06-1.51,1.78-0.03,2.18,0.05
			c3.16,0.64-1.15-3.38,0.71-3.62c0.96-0.12,1.17,1.79,1.81,2.13c1.26,0.66,1.22-1.1,1.22-1.78C16.82,55.23,16.83,55.23,16.83,55.23
			z M17.41,62.65c1.62,0.08,1.81-2.2,0.29-2.48C16.16,59.88,15.77,62.57,17.41,62.65z"/>
		<path d="M73.41,48.04c-0.14-1.22,0.54-2.33,1.55-2.97c1.05-0.66,2.59-0.24,3.42-1.08c0.42-0.42,0.58-1.06,0.99-1.5
			c0.52-0.56,1.15-0.65,1.72-1.09c0.93-0.73,1.01-1.8,2.28-2.21c0.76-0.25,0.78-0.15,1.29-0.68c0.37-0.38,0.65-0.99,1.32-0.66
			c1.29,0.65,0.09,2.42-0.75,2.84c-0.47,0.23-1.03,0.24-1.46,0.57c-0.47,0.37-0.51,0.86-0.85,1.3c-0.35,0.45-0.86,0.55-1.33,0.82
			c-0.69,0.41-0.93,0.86-1.34,1.53c-0.8,1.28-1.66,1.48-3.07,1.63c-1.14,0.11-2.52,1.25-1.37,2.42c0.96,0.97,2.25,0.33,2.85-0.61
			c0.75-1.19,1.44-2.25,2.74-2.94c0.49-0.26,1.13-0.35,1.55-0.71c0.44-0.38,0.64-1.06,1.01-1.52c1.13-1.41,2.48-1.36,4.11-1.02
			c0.77,0.16,2,0.93,0.93,1.81c-1.13,0.92-2.45-0.78-3.56,0.61c-0.47,0.59-0.73,1.23-1.35,1.7c-0.56,0.43-1.23,0.58-1.83,0.93
			c-1.38,0.81-1.58,2.34-2.69,3.36C77.33,52.61,73.42,51.17,73.41,48.04z"/>
		<path d="M19.12,45.45c-1.86,0.77-3.42,0.28-4.76-1.16c-0.19,0.88-2.56,2.97-3.06,1.43c-0.42-1.31,1.96-1.96,2.78-1.95
			c-0.12-0.37-0.24-0.74-0.36-1.12c-0.64,0.57-3.82,1.83-4.01,0.08c-0.16-1.48,3.25-1.15,3.9-0.73c0.31-1.6,0.78-2.97,2.41-3.64
			c1.42-0.58,2.31-0.11,3.6,0.37c0.79,0.29,0.36,0.18,0.88-0.5c0.32-0.4,1.12-0.86,1.67-0.71c0.64,0.18,0.74,0.65,0.36,1.26
			c-0.45,0.73-1.43,0.75-2.15,0.48c0.34,0.56,0.65,1.08,0.86,1.64l0.01,0.02c0.05,0.29,0.1,0.58,0.15,0.87
			c0.72-0.24,4.36-0.34,3.57,1.2c-0.59,1.15-3.04,0.37-3.68-0.25c-0.14,0.36-0.27,0.7-0.42,1.07c0.96-0.3,3.81,1.32,2.51,2.28
			c-0.91,0.67-2.7-0.94-2.94-1.71c-0.32,0.4-0.65,0.75-1.11,0.94C19.27,45.37,19.2,45.41,19.12,45.45z M18.15,41.86
			c-0.09-0.8-1.28-0.72-1.33,0.05C16.76,42.84,18.12,42.81,18.15,41.86z"/>
		<path d="M29.47,24.3c1.21,1.11-0.27,2.04-1.03,2.86c-0.86,0.94-1.42,2-1.02,3.29c0.87,2.79,3.98,3.01,5.88,1.22
			c0.97-0.9,1.36-2.2,2.3-3.09c1-0.94,2.08-1.49,2.72-2.77c0.17-0.33,0.09-0.73,0.49-0.89c0.04-0.02,1.68-0.02,1.67-0.02
			c0.89,0.47-0.74,2.77-1.09,3.2c-0.94,1.14-2.15,1.94-3.02,3.16c-0.66,0.93-1.22,1.84-2.15,2.54c-1.9,1.45-4.64,1.63-6.66,0.31
			c-1.7-1.11-2.76-3.16-2.49-5.2c0.18-1.38,0.9-2.39,1.82-3.37c0.79-0.84,1.26-1.83,2.55-1.26L29.47,24.3z"/>
		<path d="M63.93,61.11c1.1,0,1.89,0.18,2.91,0.35c0.67,0.12,0.39,0.29,0.92-0.35c0.28-0.34,0.47-0.77,0.47-1.22
			c-0.02-2.77-3.13-0.87-4.43-0.68c-0.81,0.11-2.12,0.38-2.41-0.51c-0.16-0.5,0.1-1.27,0.54-1.51c0.58-0.31,1.53,0.01,2.2-0.24
			c1.11-0.42,1.86-1.01,3.15-0.85c4.43,0.56,3.74,7.39-0.12,8.4c-1.34,0.35-1.26-0.61-2.28-1.09c-0.87-0.41-1.93,0.11-2.84-0.05
			c-0.71-0.13-1.45-0.7-1.12-1.54c0.43-1.07,2.15-0.67,3.03-0.67C63.93,61.15,63.93,61.13,63.93,61.11z"/>
		<path d="M36.24,19.37c1.1-0.11,3.81,0.99,3.02,2.22c-0.95,1.46-2.28-0.16-3.45-0.15c-0.86,0.01-3.23,1.44-3.29-0.49
			C32.46,19.38,35.25,19.39,36.24,19.37z"/>
		<path d="M79.6,59.98c-2.54,0.17-2.4-3.87,0.05-3.85C82.14,56.16,82.19,59.97,79.6,59.98z"/>
		<path d="M77.18,67.23c-2.39,0.14-2.4-3.5-0.11-3.68C79.57,63.36,79.78,67.25,77.18,67.23z"/>
		<path d="M84.44,63.71c0,2.65-4.21,2.3-3.7-0.39C81.13,61.24,84.44,61.55,84.44,63.71z"/>
		<path d="M83.77,59.56c0-2.5,3.98-2.37,3.72,0.12C87.27,61.85,83.77,61.84,83.77,59.56z"/>
		<path d="M86.23,56.3c-2.15-0.02-1.81-3.36,0.33-3.03C88.49,53.56,88.16,56.32,86.23,56.3z"/>
		<path d="M34.86,57.99c0,2.02-3.03,2.12-3.04,0.04C31.8,56.01,34.86,56.01,34.86,57.99z"/>
		<path d="M81.93,52.41c1.91,0,1.93,2.71,0.11,2.89C80,55.51,79.87,52.41,81.93,52.41z"/>
		<path d="M33.14,49.88c-1.87-0.02-1.75-3.03,0.11-2.98C35.21,46.95,35.1,49.89,33.14,49.88z"/>
		<path d="M39.59,24.46c-0.72,0.04-1.26-0.6-1.06-1.29c0.22-0.73,1.56-1.42,2.28-1.48c0.72-0.06,1.47,0.5,1.18,1.31
			C41.75,23.7,40.24,24.41,39.59,24.46z"/>
		<path d="M37.15,57.77c0.01-1.79,2.6-1.95,2.88-0.2C40.33,59.46,37.14,59.77,37.15,57.77z"/>
		<path d="M29.91,27.58c0.05-1.92,3.95,1.36,3.54,2.38C32.8,31.53,29.93,28.39,29.91,27.58z"/>
		<path d="M40.57,46.76c-0.01,1.57-2.36,1.8-2.64,0.23C37.59,45.16,40.58,44.87,40.57,46.76z"/>
		<path d="M75.53,62.24c-1.92,0-1.38-3.1,0.49-2.56C77.53,60.11,77.06,62.24,75.53,62.24z"/>
		<path d="M18.96,37.55c0.01-1.09,2.21-3.53,2.57-1.69C21.8,37.24,18.95,39.69,18.96,37.55z"/>
		<path d="M16.6,36.24c-0.02-0.59-0.07-2.01,0.83-2.01c0.91,0,0.97,1.72,0.94,2.32c-0.04,0.73-0.18,1.47-1.07,1.34
			C16.4,37.76,16.6,37.05,16.6,36.24z"/>
		<path d="M19.12,45.45c0.08-0.04,0.16-0.08,0.24-0.12c1.11-0.15,3.04,2.34,1.92,3.18C19.95,49.51,18.82,46.33,19.12,45.45z"/>
		<path d="M16.58,47.71c0-0.66-0.15-1.64,0.73-1.77c0.89-0.13,0.99,0.75,1.03,1.42c0.03,0.55-0.04,2.18-0.77,2.37
			C16.66,49.98,16.56,48.19,16.58,47.71z"/>
		<path d="M70.53,70.67c-1.61,0-1.64-2.65,0.03-2.65C72.31,68.02,72.23,70.68,70.53,70.67z"/>
		<path d="M15.94,37.62c0.06,0.75-0.72,0.87-1.22,0.62c-0.62-0.32-1.28-1.51-1.29-2.19C13.43,34.04,15.94,36.37,15.94,37.62z"/>
		<path d="M30.83,31.92c-0.68-0.25-3.41-2.6-1.93-3.2C29.81,28.35,32.92,31.61,30.83,31.92z"/>
		<path d="M79.48,67.89c0-1.81,2.81-1.5,2.53,0.22C81.77,69.66,79.48,69.51,79.48,67.89z"/>
		<path d="M14.02,48.56c-1.32,0.09-0.05-3.26,1.23-3.16C16.95,45.53,15.1,48.44,14.02,48.56z"/>
		<path d="M64.98,80.59c0.01-1.9,2.75-1.55,2.43,0.24C67.15,82.29,64.97,82.17,64.98,80.59z"/>
		<path d="M70.48,81.85c-1.77-0.01-1.41-2.83,0.28-2.54C72.3,79.57,72.08,81.86,70.48,81.85z"/>
		<path d="M74.87,81.84c-1.78-0.01-1.46-2.85,0.27-2.55C76.58,79.54,76.39,81.85,74.87,81.84z"/>
		<path d="M12.51,41.45c-1.61-0.07-3.07-2.6-0.63-2.12C13.17,39.58,14.73,41.45,12.51,41.45z"/>
		<path d="M21.25,40.92c-0.23-1.35,2.88-2.48,3.21-1.2c0.28,1.09-2.63,2.53-3.2,1.22C21.27,40.94,21.25,40.92,21.25,40.92z"/>
		<path d="M33.8,24.4c0.11-2.01,4.16,1.4,2.46,2.2C35.42,26.99,33.8,25.19,33.8,24.4z"/>
		<path d="M66.22,68.15c1.79-0.02,1.32,2.75-0.26,2.46C64.53,70.35,64.72,68.17,66.22,68.15z"/>
		<path d="M31.18,19.5c1.47,0.01,1.59,2.07,0.18,2.3C29.76,22.06,29.35,19.49,31.18,19.5z"/>
		<path d="M29.46,24.29c-0.71-0.95-0.48-2.98,1.17-2.19c0.56,0.27,0.79,1.08,0.52,1.65c-0.33,0.7-1,0.67-1.67,0.55
			C29.47,24.3,29.46,24.29,29.46,24.29z"/>
		<path d="M75,68.22c1.45-0.01,1.46,2.2,0.15,2.38C73.63,70.81,73.25,68.24,75,68.22z"/>
		<path d="M32.94,24.45c-1.47,0.01-1.49-2.3-0.09-2.39C34.29,21.97,34.45,24.44,32.94,24.45z"/>
		<path d="M13.76,39.55c-1.07-0.03-2.72-1.95-0.99-2.04C13.93,37.46,15.39,39.6,13.76,39.55z"/>
		<path d="M79,60.97c1.44,0.01,1.33,2.04-0.02,2.09C77.64,63.12,77.56,60.97,79,60.97z"/>
		<path d="M34.79,63.04c-0.04-0.48-0.07-1.39,0.38-1.72c0.71-0.53,0.99,0.14,1.05,0.75c0.04,0.45-0.07,1.73-0.5,1.97
			C35.01,64.44,34.79,63.56,34.79,63.04z"/>
		<path d="M32.65,64.73c-0.98,0.22-1.6-1.76-1.08-2.38c1.05-1.24,1.53,1.64,1.16,2.32C32.7,64.69,32.67,64.71,32.65,64.73z"/>
		<path d="M23.39,72.82c-1.38,0-2.75-1.65-0.68-1.5c0.4,0.03,1.16,0.19,1.32,0.62C24.19,72.33,23.89,72.95,23.39,72.82z"/>
		<path d="M30.07,49.03c0.04,1.1-1.51,1.25-1.73,0.2C28.09,48.04,30.03,47.71,30.07,49.03z"/>
		<path d="M37.22,23.58c-0.06,1.12-1.59,0.38-1.68-0.38C35.38,21.83,37.24,22.45,37.22,23.58z"/>
		<path d="M33.48,27.75c0.21-1.01,1.45-0.94,1.57,0.09C35.21,29.14,33.45,28.94,33.48,27.75z"/>
		<path d="M32.84,25.87c-0.17,1.14-1.85,0.58-1.61-0.46C31.47,24.34,32.86,24.93,32.84,25.87z"/>
		<path d="M27.64,68.41c-1-0.03-1.47-1.71-0.26-1.73C28.26,66.67,28.7,68.34,27.64,68.41z"/>
		<path d="M24.56,69.46c0.01-1.06,1.61-0.54,1.6,0.33C26.14,70.99,24.59,70.51,24.56,69.46z"/>
		<path d="M29.29,64.44c0.8,0.02,1.51,1.52,0.59,1.87C28.89,66.68,28.09,64.4,29.29,64.44z"/>
		<path d="M28.45,56.8c0.01-1.04,1.41-1.04,1.58-0.09C30.25,57.93,28.44,57.98,28.45,56.8z"/>
		<path d="M47.66,19.1c-0.57,0.02-0.94-0.46-0.96-1c-0.03-0.75,0.6-1.09,1.13-1.52c0.9-0.72,2.51-2.92,3.69-2.99
			c1.79-0.11,0.98,1.82,0.23,2.48C50.94,16.78,48.76,19.29,47.66,19.1z"/>
		<path d="M48.17,12.26c1.34-0.16,1.07,1.26,0.54,1.88c-0.55,0.66-1.85,2.1-2.79,2.15c-1.6,0.09-1.02-1.47-0.32-2.16
			C46.19,13.57,47.3,12.15,48.17,12.26z"/>
		<path d="M58.91,24.96c-0.17-0.89,2.51-2.98,3.21-3.43c1.05-0.68,2.23-0.11,1.65,1.22C63.4,23.61,58.89,27.78,58.91,24.96z"/>
		<path d="M65.91,21.58c-1.08,0.04-3.21-2.76-1.4-3.01C65.56,18.43,67.76,21.37,65.91,21.58z"/>
		<path d="M69.96,75.9c-1.95,0-1.98-1.85,0.06-1.86c0.69,0,1.67-0.03,1.69,0.91C71.73,75.96,70.67,75.9,69.96,75.9z"/>
		<path d="M74.57,75.89c-2,0-2.05-1.86,0.03-1.86c0.71,0,1.58-0.03,1.62,0.89C76.27,75.94,75.29,75.89,74.57,75.89
			C74.57,75.89,74.57,75.89,74.57,75.89z"/>
		<path d="M65.84,75.98c-1.29-0.03-1.28-2.07,0.02-2.03C67.23,73.99,67.2,76.01,65.84,75.98z"/>
	</g>
</g>
<g id="Layer_2">
	<g>
		<g>
			<path class="st0" d="M20.5,83.44c-9.18-8.12-14.97-19.98-14.97-33.2c0-24.46,19.83-44.3,44.3-44.3s44.3,19.83,44.3,44.3
				c0,9.47-2.97,18.24-8.03,25.44c-0.2,0.29-0.41,0.57-0.62,0.86"/>
			<g>
				<path class="st1" d="M79.15,83.44c1.73-4.37,3.3-10.3,3.37-14.79l3.71,6.91l7.27,2.94C89.03,79.05,83.31,81.26,79.15,83.44z"/>
			</g>
		</g>
	</g>
</g>
</svg>
